<svg xmlns="http://www.w3.org/2000/svg" width="38" height="38" viewBox="0 0 38 38" fill="none">
  <path fill-rule="evenodd" clip-rule="evenodd" d="M20.7113 2.99951H12.1036L15.9955 8.7991L24.4706 8.68599L20.7113 2.99951ZM8 2.99951H9.69505L13.6083 8.83096L3 8.97255V7.99951C3 5.23809 5.23858 2.99951 8 2.99951ZM23.1088 2.99951L26.8471 8.65427L34.48 8.55239V7.99951C34.48 5.23809 32.2414 2.99951 29.48 2.99951H23.1088ZM3 29.4795V11.9728L34.48 11.5527V29.4795C34.48 32.2409 32.2414 34.4795 29.48 34.4795H8C5.23858 34.4795 3 32.2409 3 29.4795ZM8 -0.000488281C3.58172 -0.000488281 0 3.58124 0 7.99951V29.4795C0 33.8978 3.58172 37.4795 8 37.4795H29.48C33.8983 37.4795 37.48 33.8978 37.48 29.4795V7.99951C37.48 3.58123 33.8983 -0.000488281 29.48 -0.000488281H8ZM25.2666 23.704C25.9271 23.3086 25.912 22.3465 25.2394 21.9721L16.4374 17.0732C15.7647 16.6988 14.9391 17.193 14.9512 17.9627L15.1096 28.0349C15.1217 28.8046 15.9624 29.2726 16.623 28.8773L25.2666 23.704Z" fill="#262626"/>
</svg>